<?xml version="1.0" standalone="no"?><svg xmlns="http://www.w3.org/2000/svg" viewBox="0 0 1440 320"><path fill="#438f55" fill-opacity="1" d="M0,32L18.5,42.7C36.9,53,74,75,111,80C147.7,85,185,75,222,101.3C258.5,128,295,192,332,197.3C369.2,203,406,149,443,154.7C480,160,517,224,554,213.3C590.8,203,628,117,665,85.3C701.5,53,738,75,775,96C812.3,117,849,139,886,144C923.1,149,960,139,997,117.3C1033.8,96,1071,64,1108,58.7C1144.6,53,1182,75,1218,112C1255.4,149,1292,203,1329,202.7C1366.2,203,1403,149,1422,122.7L1440,96L1440,320L1421.5,320C1403.1,320,1366,320,1329,320C1292.3,320,1255,320,1218,320C1181.5,320,1145,320,1108,320C1070.8,320,1034,320,997,320C960,320,923,320,886,320C849.2,320,812,320,775,320C738.5,320,702,320,665,320C627.7,320,591,320,554,320C516.9,320,480,320,443,320C406.2,320,369,320,332,320C295.4,320,258,320,222,320C184.6,320,148,320,111,320C73.8,320,37,320,18,320L0,320Z"></path></svg>